<?xml version="1.0" encoding="utf-8"?>
<!-- Generator: Adobe Illustrator 16.0.4, SVG Export Plug-In . SVG Version: 6.00 Build 0)  -->
<!DOCTYPE svg PUBLIC "-//W3C//DTD SVG 1.1//EN" "http://www.w3.org/Graphics/SVG/1.1/DTD/svg11.dtd">
<svg version="1.1" id="Layer_1" xmlns="http://www.w3.org/2000/svg" xmlns:xlink="http://www.w3.org/1999/xlink" x="0px" y="0px"
	 width="46px" height="46px" viewBox="0 0 46 46" enable-background="new 0 0 46 46" xml:space="preserve">
<g>
	<path fill="#FFFFFF" d="M23,44.5C11.145,44.5,1.5,34.855,1.5,23S11.145,1.5,23,1.5S44.5,11.145,44.5,23S34.855,44.5,23,44.5z"/>
	<path fill="#00BCF3" d="M23,2c11.58,0,21,9.42,21,21s-9.42,21-21,21S2,34.58,2,23S11.42,2,23,2 M23,1C10.848,1,1,10.848,1,23
		s9.848,22,22,22s22-9.848,22-22S35.152,1,23,1L23,1z"/>
</g>
<path fill="#00BCF3" d="M25.008,9.959c1.371-1.279,3.604-1.279,4.975,0C31.352,11.234,31,13.303,30,14.582v0.002L21,23l8.982,8.416
	l-0.005,0.002c1.369,1.277,1.364,3.348-0.005,4.623c-1.371,1.279-3.592,1.279-4.963,0L11,23L25.008,9.959z"/>
</svg>
