<?xml version="1.0" encoding="utf-8"?>
<!-- Generator: Adobe Illustrator 16.0.4, SVG Export Plug-In . SVG Version: 6.00 Build 0)  -->
<!DOCTYPE svg PUBLIC "-//W3C//DTD SVG 1.1//EN" "http://www.w3.org/Graphics/SVG/1.1/DTD/svg11.dtd">
<svg version="1.1" id="Layer_1" xmlns="http://www.w3.org/2000/svg" xmlns:xlink="http://www.w3.org/1999/xlink" x="0px" y="0px"
	 width="24px" height="24px" viewBox="0 0 24 24" enable-background="new 0 0 24 24" xml:space="preserve">
<g>
	<circle fill="#FFFFFF" cx="12" cy="12" r="11"/>
	<path fill="#00BCF3" d="M12,2c5.514,0,10,4.486,10,10c0,5.514-4.486,10-10,10C6.486,22,2,17.514,2,12C2,6.486,6.486,2,12,2 M12,1
		C5.924,1,1,5.924,1,12s4.924,11,11,11s11-4.924,11-11S18.076,1,12,1L12,1z"/>
</g>
<path fill="#00BCF3" d="M17.047,14.881l-2.881-2.88l2.885-2.884c0.599-0.599,0.599-1.569,0.001-2.167
	c-0.599-0.599-1.57-0.6-2.17-0.001c-0.01,0.01-2.879,2.889-2.879,2.889L9.119,6.955c-0.6-0.6-1.571-0.6-2.171-0.001
	c-0.599,0.599-0.597,1.57,0,2.168C6.958,9.132,9.84,12,9.84,12s-2.882,2.868-2.891,2.877c-0.599,0.6-0.597,1.57,0,2.169
	c0.6,0.599,1.571,0.599,2.17,0l2.884-2.882c0,0,2.869,2.879,2.878,2.887c0.6,0.6,1.571,0.6,2.169,0
	c0.599-0.599,0.599-1.568,0.001-2.167C17.049,14.883,17.048,14.883,17.047,14.881z"/>
</svg>
