<?xml version="1.0" encoding="utf-8"?>
<!-- Generator: Adobe Illustrator 16.0.4, SVG Export Plug-In . SVG Version: 6.00 Build 0)  -->
<!DOCTYPE svg PUBLIC "-//W3C//DTD SVG 1.1//EN" "http://www.w3.org/Graphics/SVG/1.1/DTD/svg11.dtd">
<svg version="1.1" id="Layer_1" xmlns="http://www.w3.org/2000/svg" xmlns:xlink="http://www.w3.org/1999/xlink" x="0px" y="0px"
	 width="24px" height="24px" viewBox="0 0 24 24" enable-background="new 0 0 24 24" xml:space="preserve">
<g>
	<path fill="#FFFFFF" d="M12,22.5C6.21,22.5,1.5,17.79,1.5,12S6.21,1.5,12,1.5S22.5,6.21,22.5,12S17.79,22.5,12,22.5z"/>
	<path fill="#00BCF3" d="M12,2c5.514,0,10,4.486,10,10s-4.486,10-10,10S2,17.514,2,12S6.486,2,12,2 M12,1C5.924,1,1,5.924,1,12
		s4.924,11,11,11s11-4.924,11-11S18.076,1,12,1L12,1z"/>
</g>
<path fill="#00BCF3" d="M12,5.68c-3.485,0-6.32,2.835-6.32,6.32H3l4,5l4-5H8.18c0-2.106,1.713-3.82,3.82-3.82s3.82,1.714,3.82,3.82
	s-1.714,3.82-3.82,3.82c-0.69,0-1.25,0.56-1.25,1.25s0.56,1.25,1.25,1.25c3.484,0,6.32-2.835,6.32-6.32S15.484,5.68,12,5.68z"/>
</svg>
