<?xml version="1.0" encoding="utf-8"?>
<!-- Generator: Adobe Illustrator 16.0.4, SVG Export Plug-In . SVG Version: 6.00 Build 0)  -->
<!DOCTYPE svg PUBLIC "-//W3C//DTD SVG 1.1//EN" "http://www.w3.org/Graphics/SVG/1.1/DTD/svg11.dtd">
<svg version="1.1" id="Layer_1" xmlns="http://www.w3.org/2000/svg" xmlns:xlink="http://www.w3.org/1999/xlink" x="0px" y="0px"
	 width="84px" height="28px" viewBox="0 0 84 28" enable-background="new 0 0 84 28" xml:space="preserve">
<path fill="#424041" d="M74.029,0v13.534l5.221-5.685h4.368l-5.854,6.236L84,21.552h-4.539l-5.391-7h-0.041v7h-3.479V0H74.029z
	 M63.936,14.68c-0.084-2.434-1.43-3.79-4.031-4.074c-2.572,0.283-3.901,1.64-3.986,4.074c0.086,2.461,1.414,3.831,3.986,4.114
	C62.506,18.511,63.852,17.141,63.936,14.68z M67.371,14.68c-0.426,4.553-2.914,6.957-7.469,7.211c-4.524-0.254-7-2.658-7.424-7.211
	c0.424-4.526,2.897-6.916,7.424-7.17C64.458,7.764,66.945,10.154,67.371,14.68z M46.667,14.68c-0.084-2.434-1.429-3.79-4.028-4.074
	c-2.576,0.283-3.904,1.64-3.99,4.074c0.086,2.461,1.414,3.831,3.99,4.114C45.238,18.511,46.583,17.141,46.667,14.68z M50.104,14.68
	c-0.424,4.553-2.914,6.957-7.467,7.211c-4.526-0.254-7-2.658-7.426-7.211c0.425-4.526,2.899-6.916,7.426-7.17
	C47.189,7.764,49.682,10.154,50.104,14.68z M21.297,9.588h0.085c0.622-1.131,2.164-1.824,4.624-2.079
	c4.187,0.396,6.406,2.8,6.661,7.212c-0.142,4.411-2.404,6.803-6.788,7.17c-2.037,0.027-3.606-0.764-4.709-2.375h-0.043v2.035H17.86
	V0h3.438L21.297,9.588L21.297,9.588z M21.17,14.721c0.084,2.435,1.428,3.805,4.03,4.116c2.573-0.312,3.903-1.683,3.988-4.116
	c-0.056-2.431-1.386-3.803-3.988-4.115C22.599,10.917,21.254,12.289,21.17,14.721z"/>
<path fill="#19B3FF" d="M11.497,14.68c-0.084-2.434-1.442-3.79-4.072-4.074c-2.574,0.283-3.903,1.64-3.988,4.074
	c0.085,2.461,1.415,3.831,3.988,4.114C10.055,18.511,11.412,17.141,11.497,14.68z M14.934,14.68
	c-0.424,4.553-2.928,6.957-7.509,7.211c-4.525-0.254-7-2.658-7.424-7.211C0.425,10.154,2.9,7.764,7.425,7.51
	C12.006,7.764,14.509,10.154,14.934,14.68z M14.466,24.605V28H0v-3.395H14.466z"/>
</svg>
