<?xml version="1.0" encoding="utf-8"?>
<!-- Generator: Adobe Illustrator 16.0.4, SVG Export Plug-In . SVG Version: 6.00 Build 0)  -->
<!DOCTYPE svg PUBLIC "-//W3C//DTD SVG 1.1//EN" "http://www.w3.org/Graphics/SVG/1.1/DTD/svg11.dtd">
<svg version="1.1" id="Layer_1" xmlns="http://www.w3.org/2000/svg" xmlns:xlink="http://www.w3.org/1999/xlink" x="0px" y="0px"
	 width="122px" height="52px" viewBox="0 0 122 52" enable-background="new 0 0 122 52" xml:space="preserve">
<path id="oup_1_" fill="#999999" d="M120.966,10.597c0-7.303-6.283-8.959-12.439-8.959c-2.464,0-4.928,0.043-7.39,0.086v0.084v0.595
	c2.761,0.425,3.231,1.017,3.231,3.735v9.002c0,2.504-0.727,3.607-3.314,3.607c-2.719,0-7.812-6.111-9.429-8.023
	c2.249-0.637,4.376-2.293,4.376-4.797c0-3.779-4.544-4.289-7.39-4.289c-2.251,0-4.501,0.086-6.79,0.127v0.764
	c0.508,0,1.359-0.041,1.737,0.299c0.595,0.51,0.595,2.25,0.595,2.93c0,4.586-0.127,9.171-0.17,13.799h6.628v-0.809
	c-2.597-0.339-3.48-0.253-3.48-2.971c0-4.416,0.083-8.788,0.122-13.205h0.045c2.419,0,5.306,1.062,5.306,3.949
	c0,2.123-2.802,3.949-4.755,3.949c2.418,3.185,3.949,5.562,7.347,7.686c1.995,1.23,2.886,1.357,5.181,1.4
	c0.209,0,0.551,0.041,0.761,0h0.046h0.04c0.042,0,0.087,0,0.127,0l0,0l9.597-0.043c2.761,0,5.562-1.146,7.472-3.098
	C119.989,14.843,120.966,12.805,120.966,10.597L120.966,10.597z M119.184,32.591c0-2.293-3.398-1.954-3.398-3.609
	c0-0.554,0.469-1.018,1.022-1.018c1.017,0,1.271,1.059,1.439,1.865h0.089h0.334l0.13-1.951c-0.592-0.297-1.143-0.512-1.822-0.512
	c-1.236,0-2.55,0.723-2.55,2.121c0,2.255,3.354,1.87,3.354,3.527c0,0.637-0.467,1.104-1.147,1.104c-1.228,0-1.612-1.357-1.784-2.376
	h-0.422v2.376c0.55,0.256,1.485,0.594,2.123,0.594C117.868,34.712,119.184,34.076,119.184,32.591L119.184,32.591z M112.855,32.591
	c0-2.293-3.396-1.954-3.396-3.609c0-0.554,0.424-1.018,0.979-1.018c1.016,0,1.271,1.059,1.484,1.865h0.086h0.339l0.086-1.951
	c-0.554-0.297-1.148-0.512-1.784-0.512c-1.23,0-2.55,0.723-2.55,2.121c0,2.255,3.312,1.87,3.312,3.527
	c0,0.637-0.466,1.104-1.103,1.104c-1.231,0-1.657-1.357-1.826-2.376h-0.423v2.376c0.55,0.256,1.526,0.594,2.121,0.594
	C111.499,34.712,112.855,34.076,112.855,32.591L112.855,32.591z M106.574,31.911l-0.426-0.086c-0.339,1.105-0.892,2.123-2.209,2.123
	c-1.146,0-1.103-0.383-1.146-1.357v-1.233h0.978c0.891,0,0.891,0.255,0.975,1.104h0.127h0.341c0-0.935,0-1.867,0-2.76v-0.127h-0.084
	h-0.341c-0.043,0.127-0.168,0.723-0.298,0.807c-0.212,0.17-1.399,0.127-1.697,0.127l0.044-2.377h0.171c0.553,0,1.695,0,2.121,0.383
	c0.298,0.254,0.34,0.722,0.383,1.102h0.126h0.34l0.044-2.079c-1.997,0-3.99,0-5.988,0v0.128v0.338
	c1.104,0.086,1.316,0.256,1.36,1.361c0.044,0.381,0.044,0.763,0.044,1.145v0.934c0,0.383,0,0.809-0.044,1.232
	c-0.044,1.189-0.211,1.231-1.36,1.401v0.126v0.342c1.952,0,3.949,0,5.905,0c0.083-0.299,0.21-0.555,0.252-0.85l0,0
	C106.362,33.144,106.445,32.505,106.574,31.911L106.574,31.911z M99.522,34.585v-0.127v-0.297c-1.398-0.255-2.673-1.91-3.266-3.143
	c0.72-0.297,1.356-0.764,1.356-1.654c0-1.615-1.867-1.869-3.098-1.869c-1.02,0-2.04,0.042-3.059,0.042v0.128v0.299
	c1.105,0.168,1.359,0.252,1.359,1.441c0,0.51,0.043,0.977,0.043,1.486v0.934c0,1.444,0.213,2.039-1.357,2.251v0.126v0.342
	c1.44,0,2.841,0,4.289,0v-0.129v-0.339c-1.917-0.17-1.57-0.933-1.57-2.591v-3.482c0.847,0.086,1.78,0.425,1.78,1.445
	c0,1.018-0.639,1.188-1.441,1.402c0.719,1.271,1.612,3.268,3.181,3.607c0.552,0.127,1.104,0.127,1.696,0.127H99.522z M79.994,10.724
	C79.994,4.737,75.791,1,69.931,1c-5.688,0-10.062,3.694-10.062,9.555s4.287,9.638,10.023,9.638
	C75.495,20.192,79.994,16.499,79.994,10.724L79.994,10.724z M90.44,29.532c0-1.654-2.293-2.037-3.567-2.037
	c-0.975,0-1.999,0.042-3.015,0.086v0.084v0.338c0.34,0.045,0.806,0.129,1.062,0.299c0.467,0.383,0.339,2.335,0.339,3.014
	c0,0.468,0.044,2.039-0.211,2.379c-0.214,0.254-0.895,0.34-1.189,0.382v0.126v0.342c1.444,0,2.932,0,4.373,0v-0.129v-0.339
	c-1.358-0.087-1.53-0.212-1.57-1.528c0-0.467-0.046-0.936-0.046-1.4v-3.1c1.064,0.041,2.251,0.467,2.251,1.697
	c0,1.273-0.551,1.402-1.613,1.57v0.468C88.737,31.698,90.44,31.401,90.44,29.532L90.44,29.532z M78.763,27.964v-0.086v-0.341
	c-0.975,0-1.997,0-3.014,0v0.128v0.299c0.254,0.039,0.68,0.125,0.68,0.464c0,0.511-0.848,2.081-1.063,2.507
	c-0.295-0.469-1.485-2.123-1.485-2.507c0-0.339,0.554-0.38,0.807-0.464v-0.086v-0.341c-1.231,0-2.462,0-3.692,0v0.128v0.338
	c0.254,0,0.636,0.086,0.893,0.256c0.636,0.34,2.123,2.973,2.461,3.607c0,1.529,0.211,2.04-1.485,2.21v0.126v0.342
	c1.485,0,2.929,0,4.415,0v-0.129v-0.339c-1.743-0.17-1.528-0.722-1.528-2.293c0-0.468,1.612-3.142,2.08-3.481
	C78.083,28.089,78.423,28.048,78.763,27.964L78.763,27.964z M70.4,29.915c-0.047-0.639-0.13-1.316-0.13-1.996
	c0-0.125,0.044-0.254,0.044-0.382c-0.725,0.086-1.486,0.086-2.252,0.086c-0.72,0-1.401,0.042-2.119,0.042
	c-0.769,0-1.487-0.084-2.211-0.128c-0.041,0.765-0.086,1.573-0.169,2.378l0.468,0.041c0.295-1.782,0.593-1.654,2.25-1.654
	c0.041,0.935,0.041,1.825,0.041,2.762c0,0.549,0,1.059-0.041,1.611c-0.043,1.189-0.299,1.231-1.445,1.401v0.126v0.342
	c1.445,0,2.89,0,4.331,0v-0.129v-0.339c-1.696-0.212-1.486-0.681-1.486-2.293v-0.933v-2.549c1.615,0.043,1.953-0.086,2.294,1.613
	h0.084H70.4z M58.341,5.63l-0.298-4.033H44.16v0.127v0.553c2.589,0.381,3.141,0.721,3.141,3.311v9.68c0,3.312-2.803,3.48-5.478,3.48
	c-2.334,0-3.735-1.781-4.882-3.566l-3.735-5.814c0.68-1.02,1.315-1.996,1.952-3.018c1.613-2.418,2.761-3.732,5.818-3.946V2.317
	v-0.68h-7.601v0.765c0.678,0.126,1.911,0.169,1.911,1.104c0,1.061-2.038,3.99-2.675,4.968l-4.416-6.837h-5.987v0.127v0.681
	c2.589,0.042,4.203,1.825,5.479,3.903l2.843,4.717L27.898,14.8c-1.697,2.506-2.631,3.779-5.86,3.947v0.129v0.68h7.896l0.044-0.639
	c-0.681-0.254-1.996-0.55-1.996-1.484c0-1.062,2.505-4.459,3.269-5.393l4.798,7.516h17.662v-0.125v-0.555
	c-3.013-0.553-3.397-0.382-3.397-3.523v-4.373c2.848,0,4.334-0.553,4.502,2.803h0.129h0.509V9.366
	c-1.061,0.169-2.165,0.169-3.27,0.169h-1.87V2.657h1.616c2.42,0,5.267-0.129,5.646,2.973H58.341z M62.546,34.544v-0.129v-0.339
	c-1.233-0.128-1.36-0.296-1.402-1.528c0-0.341-0.045-0.637-0.045-0.936v-1.398c0-1.488-0.128-1.998,1.447-2.25v-0.086v-0.341
	c-1.402,0-2.805,0-4.205,0v0.128v0.299c0.298,0.039,0.892,0.168,1.103,0.338c0.425,0.34,0.298,2.207,0.298,2.803
	c0,0.508,0,1.061,0,1.57c-0.043,1.189-0.254,1.231-1.4,1.401v0.126v0.342C59.741,34.544,61.144,34.544,62.546,34.544L62.546,34.544z
	 M57.109,32.591c0-2.293-3.398-1.954-3.398-3.609c0-0.554,0.428-1.018,0.978-1.018c1.021,0,1.275,1.059,1.486,1.865h0.084H56.6
	l0.084-1.951c-0.55-0.297-1.145-0.512-1.781-0.512c-1.231,0-2.549,0.723-2.549,2.121c0,2.255,3.312,1.87,3.312,3.527
	c0,0.637-0.467,1.104-1.104,1.104c-1.23,0-1.654-1.357-1.824-2.376h-0.426v2.376c0.552,0.256,1.528,0.594,2.122,0.594
	C55.749,34.712,57.109,34.076,57.109,32.591L57.109,32.591z M51.461,34.585v-0.127v-0.297c-1.4-0.255-2.673-1.91-3.31-3.143
	c0.763-0.297,1.358-0.764,1.358-1.654c0-1.615-1.868-1.869-3.1-1.869c-1.02,0-2.039,0.042-3.058,0.042v0.128v0.299
	c1.146,0.168,1.357,0.252,1.4,1.441v1.445c0,0.338,0,0.635,0,0.975c0,1.444,0.257,2.039-1.358,2.251v0.126v0.342
	c1.444,0,2.846,0,4.289,0v-0.129v-0.339c-1.913-0.17-1.571-0.933-1.571-2.591v-3.482c0.85,0.086,1.826,0.425,1.826,1.445
	c0,1.018-0.681,1.188-1.488,1.402c0.725,1.271,1.657,3.268,3.229,3.607c0.553,0.127,1.104,0.127,1.657,0.127H51.461z M42.207,31.911
	l-0.425-0.086c-0.34,1.105-0.892,2.123-2.163,2.123c-1.148,0-1.148-0.383-1.148-1.357l-0.043-1.233h0.979
	c0.889,0,0.93,0.255,1.017,1.104h0.086h0.339c0-0.935,0.043-1.867,0.043-2.76v-0.127h-0.126h-0.299
	c-0.043,0.127-0.171,0.723-0.297,0.807c-0.256,0.17-1.443,0.127-1.741,0.127l0.043-2.377h0.17c0.594,0,1.695,0,2.124,0.383
	c0.338,0.254,0.338,0.722,0.425,1.102h0.083h0.339l0.087-2.079c-1.998,0-3.994,0-6.03,0v0.128v0.338
	c1.104,0.086,1.358,0.256,1.402,1.361c0,0.381,0,0.763,0,1.145v0.934c0,0.383,0,0.809,0,1.232c-0.044,1.189-0.213,1.231-1.402,1.401
	v0.126v0.342c1.996,0,3.951,0,5.903,0C41.866,33.651,42.08,32.844,42.207,31.911L42.207,31.911z M21.146,10.681
	C21.146,4.694,16.944,1,11.084,1C5.394,1,1.021,4.654,1.021,10.513c0,5.902,4.289,9.68,10.062,9.68
	C16.688,20.192,21.146,16.499,21.146,10.681L21.146,10.681z M35.074,27.964v-0.086v-0.341c-1.104,0-2.209,0-3.355,0v0.128v0.299
	c0.297,0.084,1.189,0.21,1.189,0.591c0,0.595-1.359,3.526-1.573,4.078c-0.296-0.552-1.695-3.567-1.695-4.118
	c0-0.383,0.805-0.512,1.062-0.551v-0.086v-0.341c-1.317,0-2.632,0-3.949,0v0.128v0.299c0.85,0.125,1.104,0.338,1.444,1.102
	l2.589,5.9h0.086h0.125c0.426-0.977,2.592-6.07,3.185-6.621C34.394,28.132,34.778,28.048,35.074,27.964L35.074,27.964z
	 M26.328,34.544v-0.129v-0.339c-1.233-0.128-1.356-0.296-1.403-1.528c-0.041-0.341-0.041-0.637-0.041-0.936v-1.398
	c0-1.488-0.171-1.998,1.444-2.25v-0.086v-0.341c-1.403,0-2.805,0-4.204,0v0.128v0.299c0.254,0.039,0.848,0.168,1.06,0.338
	c0.426,0.34,0.34,2.207,0.34,2.803c0,0.508,0,1.061-0.041,1.57c-0.043,1.189-0.212,1.231-1.358,1.401v0.126v0.342
	C23.523,34.544,24.925,34.544,26.328,34.544L26.328,34.544z M21.021,27.964v-0.086v-0.341c-1.275,0.044-2.549,0.044-3.782,0v0.128
	v0.338c1.233,0.045,1.701,0.171,1.742,1.484c0.043,0.469,0.084,0.938,0.084,1.404c0,0.466-0.041,0.892-0.041,1.359
	c-0.978-1.062-3.737-3.696-4.289-4.714h-2.462v0.128v0.299c0.765,0.168,1.061,0.295,1.57,0.89c0,0.128,0.043,0.296,0.043,0.423
	v0.979c0,0.809-0.043,1.611-0.085,2.42c-0.041,1.02-0.297,1.273-1.358,1.401v0.126v0.342c1.317,0,2.632,0,3.949,0v-0.129v-0.339
	c-1.317-0.087-1.741-0.17-1.783-1.614c0-0.551,0-1.104,0-1.697v-1.104c1.527,1.654,3.185,3.183,4.671,4.883h0.042h0.424
	c0-0.555-0.126-5.775,0.296-6.199C20.298,28.089,20.722,28.003,21.021,27.964L21.021,27.964z M11.765,28.003v-0.466H7.986v0.128
	v0.338c0.848,0,1.357,0.469,1.357,1.361c0,1.061-0.171,2.419-0.425,3.479c-0.212,0.851-0.977,1.146-1.783,1.146
	c-0.934,0-1.742-0.466-1.825-1.484c-0.213-1.654-0.297-3.355-0.338-5.01C3.995,27.537,2.975,27.537,2,27.537v0.086v0.466h0.508
	c0.808,0.085,0.936,1.021,1.02,1.656c0.126,0.892,0.17,1.826,0.255,2.717c0.254,1.953,1.487,2.294,3.31,2.294
	C11.805,34.756,8.324,28.003,11.765,28.003L11.765,28.003z M117.4,10.895c0,4.33-2.463,7.769-7.051,7.769
	c-2.25,0-3.142-0.553-3.142-2.801V2.743c0.426-0.127,0.892-0.172,1.275-0.172C113.58,2.571,117.4,5.545,117.4,10.895L117.4,10.895z
	 M76.429,10.808c0,4.12-1.317,8.449-6.198,8.449c-2.295,0-4.159-1.273-5.395-3.141c-1.061-1.654-1.4-3.865-1.4-5.816
	c0-4.035,1.529-8.364,6.284-8.364c2.334,0,4.115,1.272,5.351,3.183C76.087,6.733,76.429,8.899,76.429,10.808L76.429,10.808z
	 M17.581,10.808c0,4.077-1.274,8.408-6.199,8.408c-2.25,0-4.119-1.273-5.349-3.1C4.93,14.462,4.589,12.251,4.589,10.3
	c0-4.076,1.526-8.364,6.325-8.364c2.293,0,4.077,1.272,5.308,3.183C17.239,6.733,17.581,8.899,17.581,10.808L17.581,10.808z"/>
<rect x="1" y="39.048" fill="#999999" width="120" height="1"/>
<path id="A_5_" fill="#999999" d="M3.168,49.183c-0.042,0-0.052,0.008-0.066,0.051l-0.396,0.956
	c-0.075,0.175-0.107,0.353-0.107,0.437c0,0.126,0.066,0.2,0.294,0.2H3c0.092,0,0.11,0.034,0.11,0.075
	c0,0.06-0.043,0.077-0.118,0.077c-0.243,0-0.587-0.027-0.821-0.027c-0.075,0-0.473,0.027-0.855,0.027
	c-0.094,0-0.136-0.018-0.136-0.077c0-0.041,0.026-0.075,0.085-0.075c0.068,0,0.152-0.009,0.218-0.009
	c0.337-0.051,0.461-0.268,0.613-0.628l1.929-4.487c0.083-0.201,0.142-0.285,0.217-0.285c0.109,0,0.145,0.066,0.219,0.227
	c0.176,0.393,1.408,3.313,1.876,4.395c0.287,0.646,0.499,0.738,0.633,0.764c0.107,0.016,0.191,0.024,0.275,0.024
	c0.067,0,0.102,0.024,0.102,0.075c0,0.06-0.042,0.077-0.318,0.077c-0.262,0-0.799,0-1.418-0.018c-0.134-0.01-0.22-0.01-0.22-0.06
	c0-0.041,0.018-0.067,0.095-0.075c0.049-0.009,0.099-0.074,0.066-0.159l-0.571-1.434c-0.016-0.043-0.042-0.051-0.073-0.051H3.168z
	 M4.744,48.788c0.035,0,0.043-0.017,0.035-0.041l-0.696-1.811c-0.009-0.025-0.018-0.068-0.034-0.068
	c-0.024,0-0.033,0.043-0.041,0.068l-0.713,1.801c-0.018,0.034,0,0.051,0.024,0.051H4.744z"/>
<path id="U_1_" fill="#999999" d="M7.79,47.647c0-1.082,0.008-1.283-0.009-1.508c-0.018-0.252-0.083-0.32-0.317-0.387
	c-0.062-0.018-0.187-0.026-0.287-0.026c-0.083,0-0.124-0.024-0.124-0.075s0.049-0.067,0.158-0.067c0.395,0,0.89,0.017,1.107,0.017
	c0.187,0,0.679-0.017,0.949-0.017c0.107,0,0.157,0.017,0.157,0.067s-0.04,0.075-0.117,0.075c-0.083,0-0.125,0.009-0.216,0.026
	c-0.194,0.033-0.253,0.135-0.271,0.387c-0.017,0.225-0.017,0.426-0.017,1.508v0.998c0,1.041,0.202,1.443,0.561,1.729
	c0.33,0.26,0.682,0.283,0.933,0.283c0.318,0,0.695-0.09,0.991-0.377c0.409-0.385,0.427-1.006,0.427-1.734v-0.898
	c0-1.082-0.009-1.283-0.018-1.508c-0.017-0.245-0.075-0.32-0.311-0.387c-0.059-0.018-0.185-0.026-0.269-0.026
	c-0.083,0-0.126-0.024-0.126-0.075s0.051-0.067,0.151-0.067c0.376,0,0.872,0.017,0.88,0.017c0.084,0,0.58-0.017,0.865-0.017
	c0.1,0,0.15,0.017,0.15,0.067s-0.042,0.075-0.126,0.075s-0.126,0.009-0.218,0.026c-0.202,0.033-0.252,0.135-0.267,0.387
	c-0.011,0.225-0.02,0.426-0.02,1.508v0.764c0,0.797-0.084,1.635-0.703,2.146c-0.521,0.436-1.083,0.512-1.561,0.512
	c-0.387,0-1.149-0.018-1.685-0.486c-0.378-0.328-0.672-0.855-0.672-1.887V47.647z"/>
<path id="S_1_" fill="#999999" d="M14.079,50.886c-0.117-0.052-0.142-0.084-0.142-0.246c0-0.385,0.033-0.826,0.042-0.944
	c0-0.11,0.034-0.186,0.092-0.186c0.066,0,0.076,0.067,0.076,0.116c0,0.094,0.025,0.244,0.067,0.369
	c0.16,0.527,0.714,0.705,1.174,0.705c0.638,0,1.024-0.402,1.024-0.906c0-0.309-0.077-0.62-0.73-1.006l-0.427-0.252
	c-0.875-0.512-1.159-0.99-1.159-1.619c0-0.871,0.84-1.434,1.861-1.434c0.479,0,0.857,0.068,1.051,0.117
	c0.064,0.018,0.098,0.043,0.098,0.092c0,0.094-0.023,0.295-0.023,0.855c0,0.154-0.035,0.226-0.094,0.226
	c-0.049,0-0.074-0.04-0.074-0.124c0-0.066-0.033-0.285-0.193-0.469c-0.108-0.135-0.344-0.334-0.822-0.334
	c-0.528,0-1.005,0.274-1.005,0.761c0,0.319,0.117,0.57,0.78,0.938l0.301,0.168c0.974,0.537,1.274,1.082,1.274,1.729
	c0,0.528-0.202,0.957-0.739,1.334c-0.352,0.251-0.836,0.293-1.232,0.293C14.852,51.069,14.4,51.027,14.079,50.886z"/>
<path id="T_1_" fill="#999999" d="M19.993,46.021l-1.098,0.025c-0.429,0.008-0.604,0.059-0.714,0.217
	c-0.076,0.102-0.108,0.194-0.126,0.244c-0.018,0.059-0.033,0.092-0.083,0.092c-0.052,0-0.067-0.043-0.067-0.119
	c0-0.115,0.142-0.803,0.159-0.861c0.017-0.094,0.041-0.135,0.084-0.135c0.06,0,0.133,0.059,0.318,0.084
	c0.217,0.026,0.495,0.033,0.738,0.033h2.993c0.235,0,0.396-0.017,0.504-0.033c0.118-0.016,0.176-0.033,0.201-0.033
	c0.051,0,0.059,0.042,0.059,0.15c0,0.151-0.016,0.68-0.016,0.863c-0.008,0.077-0.026,0.119-0.068,0.119
	c-0.058,0-0.076-0.034-0.085-0.143l-0.008-0.076c-0.016-0.186-0.209-0.402-0.87-0.412l-0.933-0.016v2.885
	c0,0.654,0.01,1.217,0.043,1.527c0.024,0.201,0.067,0.334,0.284,0.369c0.102,0.016,0.27,0.024,0.377,0.024
	c0.085,0,0.117,0.042,0.117,0.075c0,0.05-0.058,0.077-0.14,0.077c-0.488,0-0.982-0.027-1.193-0.027
	c-0.167,0-0.671,0.027-0.963,0.027c-0.093,0-0.143-0.027-0.143-0.077c0-0.033,0.025-0.075,0.117-0.075
	c0.108,0,0.199-0.009,0.258-0.024c0.154-0.035,0.194-0.168,0.222-0.378c0.031-0.302,0.031-0.864,0.031-1.519V46.021z"/>
<path id="R_1_" fill="#999999" d="M24.319,47.647c0-1.082,0-1.283-0.007-1.508c-0.016-0.245-0.083-0.32-0.318-0.387
	c-0.06-0.018-0.185-0.026-0.293-0.026c-0.076,0-0.126-0.024-0.126-0.075s0.059-0.067,0.166-0.067c0.387,0,0.856,0.017,1.008,0.017
	c0.253,0,0.924-0.017,1.147-0.017c0.471,0,1.008,0.042,1.401,0.304c0.21,0.143,0.521,0.502,0.521,0.98
	c0,0.527-0.3,0.998-1.023,1.574c0.654,0.809,1.174,1.453,1.618,1.897c0.411,0.412,0.672,0.444,0.789,0.47
	c0.076,0.017,0.116,0.017,0.175,0.017s0.093,0.042,0.093,0.075c0,0.06-0.05,0.077-0.142,0.077h-0.703
	c-0.411,0-0.614-0.045-0.807-0.145c-0.32-0.159-0.595-0.494-1.006-1.049c-0.293-0.384-0.605-0.862-0.695-0.972
	c-0.043-0.042-0.085-0.051-0.136-0.051l-0.664-0.016c-0.031,0-0.059,0.016-0.059,0.058v0.101c0,0.662,0.01,1.217,0.043,1.519
	c0.025,0.21,0.061,0.343,0.287,0.378c0.108,0.016,0.267,0.024,0.358,0.024c0.062,0,0.094,0.042,0.094,0.075
	c0,0.05-0.06,0.077-0.152,0.077c-0.427,0-1.041-0.027-1.146-0.027c-0.145,0-0.614,0.027-0.909,0.027
	c-0.092,0-0.141-0.027-0.141-0.077c0-0.033,0.023-0.075,0.117-0.075c0.107,0,0.193-0.009,0.26-0.024
	c0.151-0.035,0.191-0.168,0.22-0.378c0.03-0.302,0.03-0.864,0.03-1.519V47.647z M25.259,48.202c0,0.074,0.019,0.1,0.068,0.124
	c0.158,0.052,0.378,0.068,0.562,0.068c0.294,0,0.396-0.026,0.521-0.118c0.228-0.158,0.478-0.469,0.478-1.058
	c0-1.005-0.687-1.266-1.122-1.266c-0.185,0-0.361,0.009-0.438,0.024c-0.05,0.02-0.068,0.043-0.068,0.104V48.202z"/>
<path id="A_4_" fill="#999999" d="M30.394,49.183c-0.041,0-0.05,0.008-0.067,0.051l-0.394,0.956c-0.076,0.175-0.11,0.353-0.11,0.437
	c0,0.126,0.068,0.2,0.294,0.2h0.109c0.094,0,0.109,0.034,0.109,0.075c0,0.06-0.041,0.077-0.116,0.077
	c-0.245,0-0.589-0.027-0.823-0.027c-0.076,0-0.47,0.027-0.856,0.027c-0.092,0-0.134-0.018-0.134-0.077
	c0-0.041,0.026-0.075,0.085-0.075c0.065,0,0.151-0.009,0.219-0.009c0.334-0.051,0.46-0.268,0.61-0.628l1.931-4.487
	c0.084-0.201,0.142-0.285,0.218-0.285c0.107,0,0.143,0.066,0.218,0.227c0.176,0.393,1.408,3.313,1.879,4.395
	c0.284,0.646,0.493,0.738,0.629,0.764c0.108,0.016,0.192,0.024,0.276,0.024c0.067,0,0.101,0.024,0.101,0.075
	c0,0.06-0.042,0.077-0.319,0.077c-0.258,0-0.796,0-1.417-0.018c-0.135-0.01-0.219-0.01-0.219-0.06c0-0.041,0.017-0.067,0.094-0.075
	c0.051-0.009,0.101-0.074,0.066-0.159l-0.57-1.434c-0.017-0.043-0.042-0.051-0.075-0.051H30.394z M31.97,48.788
	c0.034,0,0.043-0.017,0.034-0.041l-0.696-1.811c-0.008-0.025-0.016-0.068-0.031-0.068c-0.026,0-0.035,0.043-0.043,0.068
	l-0.714,1.801c-0.018,0.034,0,0.051,0.024,0.051H31.97z"/>
<path id="L_2_" fill="#999999" d="M36.366,48.905c0,0.914,0,1.369,0.158,1.5c0.125,0.111,0.411,0.152,0.98,0.152
	c0.396,0,0.679-0.008,0.864-0.201c0.092-0.092,0.169-0.293,0.185-0.428c0.011-0.068,0.024-0.109,0.083-0.109
	c0.052,0,0.067,0.076,0.067,0.16s-0.049,0.611-0.109,0.822c-0.049,0.159-0.082,0.191-0.47,0.191c-0.526,0-0.956-0.006-1.325-0.025
	c-0.367-0.007-0.679-0.017-0.979-0.017c-0.086,0-0.243,0.01-0.419,0.01c-0.177,0.007-0.362,0.018-0.513,0.018
	c-0.092,0-0.142-0.027-0.142-0.077c0-0.033,0.024-0.075,0.117-0.075c0.108,0,0.192-0.009,0.259-0.024
	c0.152-0.035,0.193-0.168,0.218-0.378c0.035-0.302,0.035-0.864,0.035-1.519v-1.258c0-1.082,0-1.283-0.008-1.508
	c-0.018-0.245-0.084-0.32-0.319-0.387c-0.061-0.018-0.152-0.026-0.243-0.026c-0.084,0-0.127-0.024-0.127-0.075
	s0.051-0.067,0.159-0.067c0.345,0,0.813,0.017,1.015,0.017c0.178,0,0.782-0.017,1.066-0.017c0.108,0,0.159,0.017,0.159,0.067
	s-0.042,0.075-0.135,0.075c-0.084,0-0.201,0.009-0.284,0.026c-0.201,0.033-0.26,0.135-0.276,0.387
	c-0.017,0.225-0.017,0.426-0.017,1.508V48.905z"/>
<path id="I_1_" fill="#999999" d="M40.006,47.647c0-1.082,0-1.283-0.01-1.508c-0.016-0.245-0.091-0.329-0.25-0.377
	c-0.086-0.027-0.176-0.036-0.271-0.036c-0.074,0-0.118-0.016-0.118-0.083c0-0.043,0.06-0.06,0.179-0.06
	c0.275,0,0.778,0.017,0.99,0.017c0.184,0,0.663-0.017,0.947-0.017c0.09,0,0.148,0.017,0.148,0.06c0,0.067-0.039,0.083-0.115,0.083
	s-0.136,0.009-0.219,0.026c-0.201,0.033-0.259,0.135-0.276,0.387c-0.017,0.225-0.017,0.426-0.017,1.508v1.258
	c0,0.688,0,1.258,0.034,1.561c0.024,0.191,0.073,0.301,0.293,0.336c0.103,0.016,0.269,0.024,0.378,0.024
	c0.083,0,0.116,0.042,0.116,0.075c0,0.05-0.058,0.077-0.142,0.077c-0.485,0-0.989-0.027-1.191-0.027
	c-0.169,0-0.672,0.027-0.965,0.027c-0.092,0-0.143-0.027-0.143-0.077c0-0.033,0.025-0.075,0.118-0.075
	c0.107,0,0.193-0.009,0.258-0.024c0.153-0.035,0.195-0.135,0.221-0.344c0.033-0.295,0.033-0.865,0.033-1.553V47.647z"/>
<path id="A_3_" fill="#999999" d="M43.737,49.183c-0.042,0-0.049,0.008-0.067,0.051l-0.395,0.956
	c-0.074,0.175-0.108,0.353-0.108,0.437c0,0.126,0.067,0.2,0.294,0.2h0.11c0.091,0,0.107,0.034,0.107,0.075
	c0,0.06-0.041,0.077-0.117,0.077c-0.243,0-0.588-0.027-0.822-0.027c-0.076,0-0.47,0.027-0.854,0.027
	c-0.094,0-0.136-0.018-0.136-0.077c0-0.041,0.025-0.075,0.084-0.075c0.067,0,0.151-0.009,0.219-0.009
	c0.335-0.051,0.463-0.268,0.611-0.628l1.929-4.487c0.085-0.201,0.144-0.285,0.22-0.285c0.109,0,0.142,0.066,0.217,0.227
	c0.178,0.393,1.409,3.313,1.88,4.395c0.285,0.646,0.494,0.738,0.627,0.764c0.11,0.016,0.192,0.024,0.278,0.024
	c0.066,0,0.103,0.024,0.103,0.075c0,0.06-0.046,0.077-0.322,0.077c-0.258,0-0.794,0-1.416-0.018c-0.134-0.01-0.218-0.01-0.218-0.06
	c0-0.041,0.018-0.067,0.092-0.075c0.052-0.009,0.103-0.074,0.067-0.159l-0.571-1.434c-0.017-0.043-0.04-0.051-0.075-0.051H43.737z
	 M45.314,48.788c0.033,0,0.041-0.017,0.033-0.041l-0.696-1.811c-0.008-0.025-0.017-0.068-0.032-0.068
	c-0.027,0-0.034,0.043-0.043,0.068l-0.714,1.801c-0.016,0.034,0,0.051,0.025,0.051H45.314z"/>
<path id="_x26__1_" fill="#999999" d="M51.881,47.253c-0.352-0.469-0.421-0.814-0.427-1.191c-0.01-0.662,0.577-1.542,2.038-1.542
	c0.411,0,0.786,0.083,1.016,0.177c0.142,0.049,0.142,0.117,0.142,0.217c0,0.277-0.065,0.947-0.094,1.074
	c-0.016,0.127-0.048,0.143-0.101,0.143c-0.05,0-0.059-0.035-0.059-0.159c0-0.218-0.057-0.487-0.242-0.706
	c-0.169-0.201-0.463-0.377-0.931-0.377c-0.352,0-0.897,0.244-0.897,0.959c0,0.786,0.722,1.457,1.393,2.203
	c0.285,0.328,1.317,1.259,1.474,1.401c0.171-0.235,0.405-0.78,0.405-1.292c0-0.126-0.034-0.275-0.16-0.387
	c-0.108-0.1-0.285-0.125-0.413-0.125c-0.048,0-0.098-0.018-0.098-0.066c0-0.068,0.066-0.084,0.133-0.084
	c0.201,0,0.538,0.008,1.007,0.059c0.159,0.016,0.285,0.066,0.285,0.167c0,0.646-0.344,1.427-0.821,1.989
	c0.562,0.459,0.939,0.688,1.164,0.82c0.269,0.16,0.731,0.294,0.898,0.294c0.074,0,0.117,0.008,0.117,0.075
	c0,0.05-0.067,0.077-0.251,0.077h-0.647c-0.955,0-1.257-0.093-1.977-0.647c-0.279,0.252-0.84,0.764-1.988,0.764
	c-1.797,0-2.332-1.124-2.332-1.854C50.515,48.261,51.379,47.497,51.881,47.253z M54.508,50.063c-0.487-0.42-1.293-1.209-1.512-1.443
	c-0.218-0.236-0.755-0.838-0.896-1.049c-0.284,0.211-0.581,0.605-0.581,1.275c0,1.049,0.74,1.721,1.612,1.721
	C53.777,50.567,54.331,50.231,54.508,50.063z"/>
<path id="N_2_" fill="#999999" d="M61.175,50.005c0.018,0.553,0.107,0.721,0.252,0.771c0.125,0.041,0.268,0.05,0.386,0.05
	c0.084,0,0.126,0.034,0.126,0.075c0,0.06-0.068,0.077-0.169,0.077c-0.478,0-0.822-0.027-0.956-0.027
	c-0.067,0-0.42,0.027-0.795,0.027c-0.103,0-0.17-0.011-0.17-0.077c0-0.041,0.049-0.075,0.119-0.075c0.1,0,0.234-0.009,0.335-0.033
	c0.192-0.05,0.217-0.243,0.228-0.864l0.065-4.227c0-0.143,0.05-0.243,0.127-0.243c0.091,0,0.191,0.108,0.319,0.233
	c0.092,0.094,1.198,1.225,2.27,2.273c0.504,0.495,1.485,1.502,1.595,1.602h0.033l-0.074-3.17c-0.011-0.436-0.076-0.562-0.255-0.629
	c-0.107-0.042-0.283-0.042-0.385-0.042c-0.094,0-0.115-0.034-0.115-0.075c0-0.058,0.074-0.067,0.182-0.067
	c0.388,0,0.782,0.017,0.941,0.017c0.086,0,0.361-0.017,0.721-0.017c0.102,0,0.167,0.01,0.167,0.067c0,0.041-0.039,0.075-0.122,0.075
	c-0.079,0-0.137,0-0.229,0.026c-0.201,0.058-0.26,0.186-0.269,0.586l-0.084,4.495c0,0.159-0.059,0.228-0.117,0.228
	c-0.125,0-0.226-0.074-0.301-0.152c-0.463-0.426-1.383-1.309-2.157-2.055c-0.804-0.771-1.584-1.636-1.726-1.761h-0.023
	L61.175,50.005z"/>
<path id="E_2_" fill="#999999" d="M67.766,47.647c0-1.082,0-1.283-0.005-1.508c-0.021-0.245-0.089-0.32-0.323-0.387
	c-0.056-0.018-0.181-0.026-0.29-0.026c-0.078,0-0.127-0.024-0.127-0.075s0.059-0.067,0.168-0.067c0.385,0,0.854,0.017,1.065,0.017
	c0.234,0,1.871,0.01,2.011,0c0.136-0.007,0.253-0.033,0.312-0.041c0.044-0.008,0.083-0.035,0.117-0.035
	c0.042,0,0.049,0.035,0.049,0.069c0,0.05-0.042,0.133-0.056,0.46c-0.008,0.076-0.027,0.385-0.042,0.471
	c-0.01,0.031-0.024,0.118-0.085,0.118c-0.052,0-0.059-0.035-0.059-0.095c0-0.049-0.01-0.174-0.052-0.259
	c-0.059-0.126-0.116-0.228-0.484-0.259c-0.126-0.02-1.008-0.033-1.158-0.033c-0.033,0-0.05,0.023-0.05,0.064v1.763
	c0,0.042,0.009,0.075,0.05,0.075c0.168,0,1.124,0,1.29-0.016c0.176-0.018,0.287-0.034,0.353-0.111
	c0.059-0.05,0.087-0.092,0.117-0.092c0.034,0,0.059,0.033,0.059,0.076c0,0.041-0.017,0.16-0.059,0.52
	c-0.017,0.143-0.03,0.429-0.03,0.478c0,0.06-0.01,0.161-0.077,0.161c-0.049,0-0.068-0.027-0.068-0.061
	c-0.007-0.074-0.007-0.167-0.024-0.26c-0.041-0.142-0.134-0.252-0.413-0.275c-0.131-0.018-0.972-0.034-1.155-0.034
	c-0.032,0-0.041,0.034-0.041,0.075v0.57c0,0.243-0.01,0.848,0,1.059c0.017,0.485,0.244,0.594,0.998,0.594
	c0.191,0,0.503-0.008,0.694-0.092c0.186-0.086,0.269-0.236,0.319-0.529c0.016-0.074,0.035-0.107,0.084-0.107
	c0.059,0,0.068,0.092,0.068,0.166c0,0.16-0.062,0.646-0.103,0.789c-0.05,0.184-0.118,0.184-0.394,0.184
	c-0.554,0-0.998-0.006-1.359-0.025c-0.362-0.007-0.636-0.017-0.855-0.017c-0.083,0-0.241,0.01-0.417,0.01
	c-0.176,0.007-0.36,0.018-0.514,0.018c-0.091,0-0.142-0.027-0.142-0.077c0-0.033,0.024-0.075,0.119-0.075
	c0.107,0,0.189-0.009,0.257-0.024c0.152-0.035,0.192-0.168,0.222-0.378c0.03-0.302,0.03-0.864,0.03-1.519V47.647z"/>
<path id="W_1_" fill="#999999" d="M71.918,46.28c-0.093-0.26-0.149-0.428-0.261-0.494c-0.074-0.051-0.218-0.06-0.285-0.06
	c-0.074,0-0.118-0.024-0.118-0.075s0.06-0.067,0.167-0.067c0.38,0,0.791,0.017,0.859,0.017c0.064,0,0.426-0.017,0.853-0.017
	c0.11,0,0.16,0.017,0.16,0.067s-0.057,0.075-0.131,0.075c-0.059,0-0.129,0.009-0.187,0.036c-0.067,0.023-0.078,0.064-0.078,0.141
	c0,0.094,0.068,0.328,0.161,0.652c0.126,0.472,0.796,2.627,0.904,2.954h0.03l1.406-3.64c0.074-0.201,0.148-0.26,0.216-0.26
	c0.088,0,0.152,0.107,0.246,0.336l1.477,3.514h0.023c0.142-0.412,0.702-2.29,0.967-3.121c0.049-0.166,0.074-0.309,0.074-0.41
	c0-0.118-0.068-0.202-0.361-0.202c-0.066,0-0.128-0.034-0.128-0.075c0-0.051,0.062-0.067,0.181-0.067
	c0.383,0,0.718,0.017,0.786,0.017c0.049,0,0.367-0.017,0.611-0.017c0.084,0,0.133,0.017,0.133,0.06c0,0.049-0.029,0.083-0.1,0.083
	c-0.072,0-0.176,0.009-0.258,0.036c-0.177,0.064-0.264,0.332-0.412,0.744c-0.346,0.898-1.098,3.16-1.459,4.227
	c-0.085,0.254-0.127,0.336-0.235,0.336c-0.101,0-0.149-0.082-0.261-0.344l-1.5-3.515h-0.019c-0.125,0.302-1.114,2.827-1.418,3.481
	c-0.133,0.295-0.176,0.377-0.283,0.377c-0.091,0-0.134-0.076-0.2-0.26L71.918,46.28z"/>
<path id="Z_1_" fill="#999999" d="M85.372,50.522c0.754,0,1.015-0.148,1.14-0.369c0.059-0.107,0.109-0.225,0.132-0.325
	c0.02-0.074,0.034-0.116,0.087-0.116c0.06,0,0.075,0.049,0.075,0.217c0,0.234-0.094,0.697-0.143,0.873
	c-0.042,0.125-0.093,0.186-0.226,0.186c-1.233,0-2.483-0.036-3.979-0.036c-0.083,0-0.122-0.024-0.122-0.075
	c0-0.042,0.006-0.083,0.093-0.209c1.037-1.568,2.111-3.18,3.102-4.646h-1.393c-0.38,0-0.814,0-1.049,0.127
	c-0.244,0.133-0.378,0.377-0.395,0.543c-0.017,0.101-0.05,0.127-0.094,0.127c-0.049,0-0.074-0.033-0.074-0.115
	c0-0.17,0.112-0.814,0.151-1.033c0.01-0.102,0.043-0.135,0.082-0.135c0.068,0,0.113,0.042,0.296,0.05
	c0.702,0.026,1.056,0.017,1.357,0.017h2.273c0.079,0,0.127,0.025,0.127,0.059c0,0.059-0.019,0.084-0.044,0.135
	c-1.021,1.602-2.132,3.229-3.167,4.729H85.372z"/>
<path id="E_1_" fill="#999999" d="M88.366,47.647c0-1.082,0-1.283-0.009-1.508c-0.017-0.245-0.086-0.32-0.319-0.387
	c-0.06-0.018-0.182-0.026-0.295-0.026c-0.074,0-0.123-0.024-0.123-0.075s0.06-0.067,0.166-0.067c0.387,0,0.858,0.017,1.067,0.017
	c0.234,0,1.867,0.01,2.013,0c0.133-0.007,0.249-0.033,0.309-0.041c0.045-0.008,0.085-0.035,0.117-0.035
	c0.045,0,0.051,0.035,0.051,0.069c0,0.05-0.039,0.133-0.059,0.46c-0.008,0.076-0.024,0.385-0.041,0.471
	c-0.01,0.031-0.023,0.118-0.082,0.118c-0.055,0-0.059-0.035-0.059-0.095c0-0.049-0.012-0.174-0.055-0.259
	c-0.059-0.126-0.117-0.228-0.483-0.259c-0.126-0.02-1.007-0.033-1.158-0.033c-0.034,0-0.049,0.023-0.049,0.064v1.763
	c0,0.042,0.006,0.075,0.049,0.075c0.166,0,1.122,0,1.291-0.016c0.177-0.018,0.286-0.034,0.351-0.111
	c0.059-0.05,0.084-0.092,0.119-0.092c0.033,0,0.059,0.033,0.059,0.076c0,0.041-0.016,0.16-0.059,0.52
	c-0.018,0.143-0.035,0.429-0.035,0.478c0,0.06-0.007,0.161-0.074,0.161c-0.05,0-0.068-0.027-0.068-0.061
	c-0.006-0.074-0.006-0.167-0.023-0.26c-0.043-0.142-0.134-0.252-0.41-0.275c-0.135-0.018-0.974-0.034-1.157-0.034
	c-0.035,0-0.041,0.034-0.041,0.075v0.57c0,0.243-0.011,0.848,0,1.059c0.015,0.485,0.242,0.594,0.997,0.594
	c0.19,0,0.503-0.008,0.693-0.092c0.186-0.086,0.27-0.236,0.316-0.529c0.021-0.074,0.037-0.107,0.089-0.107
	c0.059,0,0.064,0.092,0.064,0.166c0,0.16-0.059,0.646-0.099,0.789c-0.055,0.184-0.115,0.184-0.394,0.184
	c-0.555,0-0.998-0.006-1.36-0.025c-0.361-0.007-0.636-0.017-0.854-0.017c-0.085,0-0.245,0.01-0.421,0.01
	c-0.178,0.007-0.359,0.018-0.51,0.018c-0.095,0-0.143-0.027-0.143-0.077c0-0.033,0.024-0.075,0.118-0.075
	c0.107,0,0.19-0.009,0.258-0.024c0.151-0.035,0.193-0.168,0.217-0.378c0.035-0.302,0.035-0.864,0.035-1.519V47.647z"/>
<path id="A_2_" fill="#999999" d="M93.517,49.183c-0.044,0-0.053,0.008-0.068,0.051l-0.396,0.956
	c-0.073,0.175-0.108,0.353-0.108,0.437c0,0.126,0.068,0.2,0.294,0.2h0.107c0.093,0,0.112,0.034,0.112,0.075
	c0,0.06-0.044,0.077-0.118,0.077c-0.243,0-0.59-0.027-0.824-0.027c-0.075,0-0.47,0.027-0.853,0.027
	c-0.093,0-0.136-0.018-0.136-0.077c0-0.041,0.025-0.075,0.084-0.075c0.066,0,0.149-0.009,0.218-0.009
	c0.334-0.051,0.461-0.268,0.611-0.628l1.931-4.487c0.083-0.201,0.143-0.285,0.217-0.285c0.108,0,0.146,0.066,0.22,0.227
	c0.175,0.393,1.406,3.313,1.879,4.395c0.282,0.646,0.492,0.738,0.629,0.764c0.108,0.016,0.191,0.024,0.277,0.024
	c0.065,0,0.099,0.024,0.099,0.075c0,0.06-0.042,0.077-0.317,0.077c-0.261,0-0.798,0-1.417-0.018c-0.138-0.01-0.22-0.01-0.22-0.06
	c0-0.041,0.019-0.067,0.092-0.075c0.052-0.009,0.103-0.074,0.067-0.159l-0.57-1.434c-0.016-0.043-0.04-0.051-0.074-0.051H93.517z
	 M95.093,48.788c0.032,0,0.043-0.017,0.032-0.041l-0.695-1.811c-0.01-0.025-0.019-0.068-0.034-0.068
	c-0.024,0-0.034,0.043-0.043,0.068l-0.713,1.801c-0.015,0.034,0,0.051,0.024,0.051H95.093z"/>
<path id="L_1_" fill="#999999" d="M99.487,48.905c0,0.914,0,1.369,0.158,1.5c0.128,0.111,0.411,0.152,0.979,0.152
	c0.396,0,0.681-0.008,0.864-0.201c0.094-0.092,0.171-0.293,0.187-0.428c0.009-0.068,0.024-0.109,0.085-0.109
	c0.048,0,0.066,0.076,0.066,0.16s-0.05,0.611-0.107,0.822c-0.054,0.159-0.089,0.191-0.469,0.191c-0.532,0-0.958-0.006-1.33-0.025
	c-0.367-0.007-0.678-0.017-0.979-0.017c-0.083,0-0.244,0.01-0.422,0.01c-0.175,0.007-0.36,0.018-0.51,0.018
	c-0.093,0-0.144-0.027-0.144-0.077c0-0.033,0.026-0.075,0.117-0.075c0.108,0,0.195-0.009,0.262-0.024
	c0.149-0.035,0.192-0.168,0.217-0.378c0.034-0.302,0.034-0.864,0.034-1.519v-1.258c0-1.082,0-1.283-0.01-1.508
	c-0.014-0.245-0.083-0.32-0.317-0.387c-0.059-0.018-0.15-0.026-0.245-0.026c-0.081,0-0.126-0.024-0.126-0.075
	s0.055-0.067,0.162-0.067c0.343,0,0.812,0.017,1.015,0.017c0.178,0,0.778-0.017,1.062-0.017c0.111,0,0.161,0.017,0.161,0.067
	s-0.044,0.075-0.133,0.075c-0.087,0-0.204,0.009-0.287,0.026c-0.202,0.033-0.26,0.135-0.276,0.387
	c-0.016,0.225-0.016,0.426-0.016,1.508V48.905z"/>
<path id="A_1_" fill="#999999" d="M103.612,49.183c-0.041,0-0.051,0.008-0.064,0.051l-0.396,0.956
	c-0.073,0.175-0.109,0.353-0.109,0.437c0,0.126,0.065,0.2,0.294,0.2h0.107c0.094,0,0.109,0.034,0.109,0.075
	c0,0.06-0.041,0.077-0.117,0.077c-0.241,0-0.586-0.027-0.822-0.027c-0.073,0-0.469,0.027-0.854,0.027
	c-0.095,0-0.137-0.018-0.137-0.077c0-0.041,0.027-0.075,0.086-0.075c0.069,0,0.151-0.009,0.216-0.009
	c0.338-0.051,0.462-0.268,0.615-0.628l1.927-4.487c0.086-0.201,0.143-0.285,0.218-0.285c0.11,0,0.146,0.066,0.221,0.227
	c0.176,0.393,1.407,3.313,1.877,4.395c0.285,0.646,0.494,0.738,0.632,0.764c0.107,0.016,0.19,0.024,0.274,0.024
	c0.066,0,0.101,0.024,0.101,0.075c0,0.06-0.043,0.077-0.316,0.077c-0.265,0-0.799,0-1.419-0.018c-0.136-0.01-0.219-0.01-0.219-0.06
	c0-0.041,0.016-0.067,0.093-0.075c0.049-0.009,0.103-0.074,0.067-0.159l-0.569-1.434c-0.02-0.043-0.046-0.051-0.076-0.051H103.612z
	 M105.189,48.788c0.034,0,0.043-0.017,0.034-0.041l-0.696-1.811c-0.007-0.025-0.017-0.068-0.036-0.068
	c-0.023,0-0.03,0.043-0.04,0.068l-0.712,1.801c-0.016,0.034,0,0.051,0.025,0.051H105.189z"/>
<path id="N_1_" fill="#999999" d="M109.057,50.005c0.017,0.553,0.109,0.721,0.248,0.771c0.13,0.041,0.272,0.05,0.389,0.05
	c0.083,0,0.126,0.034,0.126,0.075c0,0.06-0.068,0.077-0.166,0.077c-0.479,0-0.826-0.027-0.958-0.027
	c-0.066,0-0.42,0.027-0.797,0.027c-0.103,0-0.167-0.011-0.167-0.077c0-0.041,0.05-0.075,0.117-0.075c0.1,0,0.235-0.009,0.333-0.033
	c0.196-0.05,0.222-0.243,0.23-0.864l0.064-4.227c0-0.143,0.053-0.243,0.127-0.243c0.092,0,0.192,0.108,0.317,0.233
	c0.094,0.094,1.2,1.225,2.272,2.273c0.503,0.495,1.486,1.502,1.594,1.602h0.036l-0.075-3.17c-0.01-0.436-0.079-0.562-0.251-0.629
	c-0.111-0.042-0.287-0.042-0.39-0.042c-0.092,0-0.118-0.034-0.118-0.075c0-0.058,0.079-0.067,0.187-0.067
	c0.387,0,0.78,0.017,0.938,0.017c0.084,0,0.362-0.017,0.724-0.017c0.098,0,0.166,0.01,0.166,0.067c0,0.041-0.043,0.075-0.126,0.075
	c-0.074,0-0.132,0-0.226,0.026c-0.202,0.058-0.26,0.186-0.268,0.586l-0.084,4.495c0,0.159-0.059,0.228-0.117,0.228
	c-0.127,0-0.228-0.074-0.305-0.152c-0.46-0.426-1.384-1.309-2.155-2.055c-0.803-0.771-1.583-1.636-1.726-1.761h-0.023
	L109.057,50.005z"/>
<path id="D_1_" fill="#999999" d="M115.647,47.647c0-1.082,0-1.283-0.006-1.508c-0.019-0.245-0.087-0.32-0.321-0.387
	c-0.059-0.018-0.182-0.026-0.294-0.026c-0.074,0-0.122-0.024-0.122-0.075s0.058-0.067,0.165-0.067c0.387,0,0.856,0.017,1.068,0.017
	c0.224,0,0.752-0.017,1.196-0.017c0.923,0,2.164,0,2.972,0.813c0.366,0.369,0.694,0.965,0.694,1.812
	c0,0.897-0.387,1.576-0.808,1.987c-0.332,0.336-1.113,0.84-2.471,0.84c-0.271,0-0.588-0.025-0.881-0.043
	c-0.296-0.025-0.563-0.042-0.749-0.042c-0.083,0-0.241,0.01-0.419,0.01c-0.175,0.007-0.358,0.018-0.511,0.018
	c-0.093,0-0.142-0.027-0.142-0.077c0-0.033,0.024-0.075,0.118-0.075c0.107,0,0.191-0.009,0.258-0.024
	c0.152-0.035,0.192-0.168,0.22-0.378c0.031-0.302,0.031-0.864,0.031-1.519V47.647z M116.64,48.437c0,0.754,0.01,1.3,0.016,1.441
	c0.01,0.176,0.024,0.429,0.083,0.504c0.091,0.135,0.386,0.285,0.966,0.285c0.671,0,1.164-0.117,1.609-0.486
	c0.479-0.396,0.63-1.031,0.63-1.77c0-0.906-0.361-1.494-0.689-1.778c-0.677-0.603-1.482-0.68-2.061-0.68
	c-0.153,0-0.396,0.018-0.455,0.05c-0.066,0.027-0.089,0.059-0.089,0.145c-0.01,0.242-0.01,0.828-0.01,1.391V48.437z"/>
</svg>
